<?xml version="1.0" encoding="UTF-8"?>
<svg xmlns="http://www.w3.org/2000/svg" version="1.1" viewBox="144 158 326 202">
  <defs>
    <style>
      .cls-1 { fill: #e63900; }
      .cls-2 { fill: #ff8a00; }
      .cls-3 { fill: #ff8a00; }
      .cls-4 { fill: #ff8a00; }
      .cls-5 { fill: #ff5a1f; }
      .cls-6 { fill: #e63900; }
      .cls-7 { fill: #e63900; }
      .cls-8 { fill: #ff9a1a; }
      .cls-9 { fill: #ff8a00; }
      .cls-10 { fill: #ff8a00; }
      .cls-11 { fill: #ff8a00; }
      .cls-12 { fill: #ff5a1f; }
      .cls-14 { fill: #ff9a1a; }
      .cls-15 { fill: #ff8a00; }
      .cls-16 { fill: #e63900; }
      .cls-17 { fill: #ff8a00; }
      .cls-18 { fill: #e63900; }
    </style>
    <g id="smart">
      <!-- SIGN (ตัวใหญ่) -->
      <g>
        <path class="cls-7" d="M344.43,277.3c-8.32-2.9-16.05-5.72-23.87-8.25-2.66-.86-5.57-1.4-8.36-1.38-24.36.22-44.47-19.69-44.8-44.52-.33-25.12,18.92-45.73,43.07-46.11,24.63-.38,44.59,19.1,45.17,44,.25,10.78-2.95,20.37-9.15,29.13-1.19,1.67-1.89,4.02-1.97,6.09-.24,6.83-.09,13.68-.09,21.04ZM333.92,223.11c.22-12.48-9.54-22.65-21.94-22.86-12.45-.21-22.64,9.58-22.87,21.96-.23,12.4,9.56,22.61,21.97,22.92,12.29.31,22.62-9.65,22.84-22.02Z"/>
        <path class="cls-16" d="M438.76,271.86c0-6.83,0-13.44,0-20.04,0-7.99-.45-16.02.12-23.97.68-9.51-6.25-20.6-18.58-23.6-16.04-3.9-30.21,7.36-30.21,24,0,13.24,0,26.48,0,39.72,0,1.23,0,2.47,0,3.89h-23.96c0-7.59-.07-14.94.02-22.28.12-10.35-.56-20.82.7-31.04,2.8-22.79,19.02-37.5,41.95-39.06,14.08-.96,27.52,1.01,38.63,10.72,9.11,7.97,14.03,18.35,14.42,30.27.55,16.59.14,33.22.13,49.83,0,.48-.12.96-.2,1.57h-23.02Z"/>
        <path class="cls-18" d="M152.31,259.74c4.26-5.43,8.54-10.89,12.86-16.4,8.36,9.04,17.92,11.57,28.15,7.52,1.59-.63,3.2-1.53,4.41-2.71,3.31-3.22,2.38-8.18-1.99-9.52-5.84-1.79-11.83-3.1-17.79-4.47-11.72-2.7-18.73-10.22-21.29-21.66-2.57-11.43,1.73-20.63,10.86-27.58,16.09-12.25,40.05-9.69,53.13,5.77-4.48,4.28-8.91,8.65-13.56,12.77-.63.56-2.51.23-3.54-.26-5.65-2.71-11.38-3.73-17.38-1.33-1.15.46-2.3,1.04-3.25,1.81-3.57,2.89-3.13,6.36,1.16,7.97,2.31.87,4.83,1.2,7.28,1.62,8.26,1.41,16.7,2.38,23.56,7.78,2.17,1.71,4.14,4.02,5.43,6.46,3.42,6.45,4.53,13.5,3.62,20.73-1.14,9.06-6.11,15.65-14.45,19.08-19.88,8.19-38.64,4.92-56.37-6.44-.29-.18-.44-.58-.84-1.14Z"/>
        <path class="cls-7" d="M236.21,206.39c7.68,4.71,14.89,9.07,22.01,13.58.62.39.91,1.72.91,2.62.05,15.98.03,31.95.02,47.93,0,.35-.15.71-.29,1.31h-22.64v-65.45Z"/>
        <path class="cls-8" d="M258.5,205.52c-7.68-4.37-14.51-8.22-21.29-12.15-.54-.32-1.08-1.18-1.09-1.8-.08-6.58-.05-13.15-.05-20.5,7.51,4.01,14.42,7.66,21.28,11.42.6.33,1.09,1.44,1.1,2.19.09,6.59.05,13.18.05,20.84Z"/>
      </g>
      <!-- MASTERPRO (ตัวเล็ก) · ขยายแต่ละตัว 1.12x รอบจุดกลางตัวเอง + เกลี่ยระยะให้เท่ากัน (ไม่ล้น S/N) -->
      <g>
        <g transform="translate(5,0) translate(155,287) scale(1.12) translate(-155,-287)"><path class="cls-17" d="M162.13,285.84c-.58,2.28-1.02,4.62-1.8,6.83-.3.84-1.39,1.9-2.14,1.92-.75.02-1.91-1.02-2.2-1.84-.82-2.32-1.28-4.77-1.88-7.16-.37,0-.73.01-1.1.02,0,2.2.13,4.41-.07,6.6-.08.85-.92,1.62-1.41,2.43-.53-.83-1.47-1.63-1.51-2.48-.17-3.61-.21-7.24.02-10.84.06-.99,1.08-2.5,1.92-2.72,1.6-.41,3.53-.47,4.04,2.03.45,2.23,1.15,4.4,1.83,6.92,3-3.13.24-10.84,8.52-8.66,0,4.66.07,9.36-.09,14.05-.02.59-1.21,1.15-1.86,1.72-.5-.73-1.37-1.43-1.44-2.2-.2-2.15-.07-4.34-.07-6.51-.25-.04-.5-.08-.75-.12Z"/></g>
        <g transform="translate(4.5,0) translate(192,287) scale(1.12) translate(-192,-287)"><path class="cls-4" d="M199.44,294.83c-2.17-1.26-4.32-3.49-6.5-3.51-2.15-.02-4.33,2.19-6.49,3.41-.32-.2-.63-.39-.95-.59,1.73-4.83,3.21-9.76,5.29-14.43.91-2.04,3.37-2.09,4.34.14,2.01,4.62,3.56,9.45,5.29,14.19-.33.26-.65.52-.98.78Z"/></g>
        <g transform="translate(6,0) translate(227,287) scale(1.12) translate(-227,-287)"><path class="cls-2" d="M224.08,282.96c1.36.55,2.69,1.17,4.07,1.63,2.55.85,5.04,1.65,5.07,5.06.03,2.92-1.68,4.33-4.18,4.94-3.12.77-6.02.32-7.94-2.57-.43-.64-.13-1.77-.17-2.67.91.14,1.9.08,2.69.46,1.07.51,1.91,1.73,2.97,1.92.84.15,1.88-.8,2.83-1.26-.59-.78-1.02-1.84-1.8-2.29-1.16-.67-2.88-.58-3.79-1.42-1.32-1.24-3.05-3.14-2.89-4.56.16-1.39,2.31-3.28,3.87-3.61,1.96-.41,4.29.33,6.27,1.07.64.24.68,2.06,1,3.16-.96-.13-1.94-.21-2.88-.42-1.53-.34-3.03-.77-4.55-1.16-.19.57-.39,1.14-.58,1.71Z"/></g>
        <g transform="translate(11.5,0) translate(258,287) scale(1.12) translate(-258,-287)"><path class="cls-10" d="M260.89,281.73c0,3.63.12,6.97-.07,10.29-.05.93-1.01,1.82-1.56,2.72-.63-.87-1.65-1.68-1.8-2.63-.29-1.82-.05-3.71-.1-5.58-.07-2.41,1-5.59-3.42-5.27-.32.02-.97-.81-.98-1.26-.02-.46.55-1.33.89-1.34,3.47-.11,6.94-.12,10.41-.03.38,0,1,.79,1.03,1.24.03.45-.47,1.19-.9,1.34-.91.31-1.93.32-3.49.53Z"/></g>
        <g transform="translate(15,0) translate(291,287) scale(1.12) translate(-291,-287)"><path class="cls-14" d="M285.77,286.39q-.02-7.99,8.11-7.94c.62,0,1.32-.17,1.85.05.68.29,1.23.9,1.83,1.37-.57.5-1.09,1.34-1.72,1.43-1.46.22-3.01-.08-4.46.18-.73.13-1.32,1.03-1.97,1.58.7.51,1.33,1.29,2.1,1.45,1.2.25,2.5-.06,3.72.14.72.12,1.36.76,2.04,1.17-.59.68-1.07,1.76-1.8,1.96-1.28.35-2.75,0-4.07.29-.75.17-1.34,1.03-2,1.58.63.58,1.2,1.55,1.9,1.65,1.71.26,3.5-.02,5.21.22.62.09,1.13,1.03,1.69,1.58-.56.55-1.09,1.54-1.67,1.57-2.98.15-5.99.2-8.96-.05-.66-.06-1.6-1.41-1.71-2.26-.26-1.96-.08-3.98-.08-5.97Z"/></g>
        <g transform="translate(16.5,0) translate(326,287) scale(1.12) translate(-326,-287)"><path class="cls-3" d="M329.32,288.04c1.2,1.93,2.42,3.9,3.94,6.34-6.01,1.48-5.62-6.86-11.03-5.96,0,1.34.22,2.73-.08,3.99-.2.85-1.14,1.53-1.75,2.28-.56-.68-1.58-1.35-1.6-2.05-.15-4.11-.09-8.22-.02-12.33,0-.53.5-1.53.73-1.52,3.65.16,7.53-.24,10.85.94,2.68.95,2.09,4.07-1.05,8.32ZM325.16,280.38c-1.41,1.27-2.34,2.1-3.27,2.94,1.01.6,2.05,1.73,3.03,1.68,1.21-.06,2.36-1.11,3.54-1.73-.94-.82-1.87-1.64-3.3-2.89Z"/></g>
        <g transform="translate(-4,0) translate(383,287) scale(1.12) translate(-383,-287)"><path class="cls-11" d="M380.49,289.19c-.06,1.27.02,2.53-.25,3.7-.15.66-.89,1.18-1.36,1.77-.55-.55-1.55-1.09-1.57-1.65-.14-4.23-.1-8.46-.07-12.69,0-.45.19-1.02.5-1.33,1.67-1.69,10.18-.23,11.28,1.9,1.5,2.9.25,6.29-2.86,7.26-1.75.54-3.62.69-5.67,1.06ZM382.89,286.99c1.51-1.58,2.41-2.52,3.3-3.46-1.2-.72-2.34-1.81-3.63-2.01-.62-.1-2.09,1.43-2.11,2.26-.03.84,1.24,1.73,2.44,3.22Z"/></g>
        <g transform="translate(-1.5,0) translate(417,287) scale(1.12) translate(-417,-287)"><path class="cls-15" d="M420.58,288.06l3.59,5.64c-.18.36-.36.71-.53,1.07-1.18-.49-2.51-.78-3.51-1.52-.85-.64-1.15-1.99-1.98-2.67-1.16-.96-2.59-1.61-3.91-2.39-.32,1.24-.53,2.52-.98,3.71-.37.99-1.03,1.87-1.56,2.79-.51-.94-1.42-1.85-1.47-2.82-.18-3.36.1-6.75-.11-10.11-.17-2.77,1.02-3.56,3.5-3.29.99.1,2,.02,3,.02,2.38,0,5.33-.37,5.94,2.54.44,2.09-.58,4.5-.95,6.76-.34.09-.69.18-1.03.28ZM416.18,280.54c-1.16,1-2.02,1.73-2.88,2.47,1.03.71,2.09,2.04,3.07,1.97,1.21-.08,2.35-1.3,3.52-2.03-1.08-.7-2.16-1.4-3.71-2.41Z"/></g>
        <g transform="translate(1,0) translate(451,287) scale(1.12) translate(-451,-287)"><path class="cls-9" d="M459,286.67c-.08,5.07-3.07,8.24-7.72,8.19-4.76-.06-8.03-3.56-7.96-8.52.07-4.69,3.56-8.38,7.86-8.32,4.67.07,7.9,3.65,7.82,8.65ZM446.78,286.06c.02,3.63,1.76,5.75,4.43,5.85,2.63.1,4.61-2.1,4.66-5.19.06-3.39-1.74-5.45-4.71-5.43-3.52.02-4.27,2.34-4.38,4.77Z"/></g>
      </g>
      <!-- สัญลักษณ์เชฟรอน (ล่างสุด · คงเดิม) -->
      <g>
        <path class="cls-6" d="M262.77,313.44c6.95,3.95,13.84,8.01,20.89,11.76,1.36.72,3.62.8,5.03.18,7.88-3.47,15.61-7.31,23.46-10.86,1.18-.53,3.03-.73,4.1-.17,7.1,3.66,14.08,7.57,21.1,11.39.44.24.9.45,1.92.97-7.86,4.02-14.83,7.6-21.83,11.16-9.58,4.86-19.14,9.76-28.79,14.48-1.25.61-3.27.92-4.39.33-16.19-8.39-32.28-16.96-48.4-25.5-.21-.11-.36-.34-.53-.51.03-.56.06-1.12.09-1.68h0c1-.5,2.01-1,3.01-1.5,0,0-.01,0-.01,0,.25-.25.49-.49.74-.74.25,0,.5-.02.74-.02,3.01-1.25,6.01-2.5,9.02-3.76,1.01-.76,2.02-1.51,3.02-2.27,0,0-.05.04-.05.04,3.63-1.1,7.25-2.2,10.88-3.29Z"/>
        <path class="cls-1" d="M239.9,322.72c-.25,0-.5.01-.74.02-.25.25-.49.49-.74.74,0,0,.01,0,.01,0-1,.5-2.01,1-3.01,1.5,0,0,0,0,0,0-.51,0-1.02.01-1.53.02-.06-3.97-.26-7.94-.08-11.9.05-1.06,1.01-2.53,1.96-3.03,7.72-3.99,15.53-7.79,23.32-11.65.49.14.98.28,1.47.42,0,4.47,0,8.93-.01,13.4-2.88,1.5-5.76,3-8.65,4.51,0,0,.05-.04.05-.04-1.24.52-2.48,1.05-3.71,1.57-2.77,1.48-5.55,2.97-8.32,4.45Z"/>
        <path class="cls-5" d="M251.89,316.73c2.88-1.5,5.76-3,8.65-4.51.74.4,1.49.81,2.23,1.21-3.63,1.1-7.25,2.2-10.88,3.29Z"/>
        <path class="cls-5" d="M260.55,298.82c-.49-.14-.98-.28-1.47-.42.36-.21.71-.41,1.07-.62.13.35.26.69.39,1.04Z"/>
        <path class="cls-12" d="M233.89,324.98c.51,0,1.02-.01,1.53-.02-.03.56-.06,1.12-.09,1.68-.48-.56-.96-1.11-1.44-1.67Z"/>
        <path class="cls-12" d="M239.9,322.72c2.77-1.48,5.55-2.97,8.32-4.45.23.23.46.47.69.7-3.01,1.25-6.01,2.5-9.02,3.76Z"/>
        <path class="cls-5" d="M248.92,318.96c-.23-.23-.46-.47-.69-.7,1.24-.52,2.48-1.04,3.72-1.57-1.01.76-2.01,1.51-3.02,2.27Z"/>
        <path class="cls-12" d="M235.41,324.97c1-.5,2.01-1,3.01-1.5-1,.5-2.01,1-3.01,1.5Z"/>
        <path class="cls-12" d="M238.42,323.47c.25-.25.49-.49.74-.74-.25.25-.49.49-.74.74Z"/>
      </g>
    </g>
  </defs>
  <!-- โลโก้ Signmaster Pro — recolor ส้ม + MASTERPRO ใหญ่ขึ้น (แสงวิ่งทำที่ CSS หน้าเว็บ) -->
  <use href="#smart"/>
</svg>
